<?xml version="1.0" standalone="no"?>
<!DOCTYPE svg PUBLIC "-//W3C//DTD SVG 20010904//EN"
 "http://www.w3.org/TR/2001/REC-SVG-20010904/DTD/svg10.dtd">
<svg version="1.0" xmlns="http://www.w3.org/2000/svg"
 width="515.000000pt" height="60.000000pt" viewBox="0 0 515.000000 60.000000"
 preserveAspectRatio="xMidYMid meet">

<g transform="translate(0.000000,60.000000) scale(0.100000,-0.100000)"
fill="#000000" stroke="none">
<path d="M4836 505 c-11 -62 -23 -84 -50 -91 -13 -3 -34 -1 -45 6 -23 12 -26
8 -11 -20 6 -12 7 -28 0 -44 -7 -21 -20 -27 -72 -38 l-63 -13 60 -10 c68 -12
91 -38 74 -83 -9 -22 -8 -24 16 -18 54 14 72 -1 85 -67 l13 -62 11 58 c12 65
30 83 77 73 27 -5 28 -4 23 23 -10 49 8 68 73 76 l58 8 -60 14 c-68 16 -78 25
-71 69 4 31 3 31 -34 30 -21 0 -42 3 -46 7 -4 4 -13 33 -20 65 l-11 57 -7 -40z
m12 -131 c42 -29 17 -104 -35 -104 -21 0 -53 38 -53 62 0 26 27 58 49 58 9 0
27 -7 39 -16z"/>
<path d="M4180 310 l0 -220 25 0 c24 0 25 2 25 75 l0 74 124 73 123 73 -126
72 c-69 40 -136 73 -148 73 l-23 0 0 -220z"/>
<path d="M710 472 c-19 -6 -26 -16 -28 -40 l-3 -32 42 15 c23 8 48 15 55 15
20 0 54 -37 54 -59 0 -10 -36 -59 -80 -107 -50 -56 -80 -97 -80 -111 0 -22 2
-23 110 -23 l110 0 0 25 c0 23 -3 24 -70 27 l-69 3 69 79 c60 68 70 84 70 117
0 60 -34 91 -101 95 -30 2 -65 0 -79 -4z"/>
<path d="M1213 473 c-18 -3 -23 -11 -23 -34 0 -33 -3 -32 56 -18 37 10 48 9
69 -5 45 -30 20 -76 -41 -76 -30 0 -34 -3 -34 -25 0 -21 5 -25 30 -25 33 0 80
-38 80 -64 0 -20 -48 -56 -74 -56 -11 1 -38 7 -58 14 l-38 14 0 -29 c0 -35 8
-40 79 -46 91 -8 151 31 151 98 0 32 -28 77 -52 85 -21 6 -21 7 5 20 54 29 42
121 -19 144 -25 10 -89 11 -131 3z"/>
<path d="M2773 465 c-49 -21 -68 -66 -68 -165 0 -99 15 -145 56 -165 57 -30
134 -10 157 40 26 56 6 154 -33 169 -26 9 -84 7 -106 -4 -22 -12 -23 -5 -8 39
17 48 72 66 120 41 17 -9 19 -7 19 19 0 17 -6 31 -16 35 -27 10 -87 6 -121 -9z
m77 -175 c40 -40 20 -120 -30 -120 -34 0 -50 23 -50 69 0 30 29 71 50 71 6 0
19 -9 30 -20z"/>
<path d="M3770 467 c-51 -26 -63 -110 -19 -140 18 -13 18 -14 -6 -35 -32 -28
-40 -62 -25 -107 16 -47 57 -69 122 -63 63 7 89 31 95 92 5 41 3 48 -24 73
l-30 28 23 18 c27 20 33 80 11 108 -29 38 -98 51 -147 26z m88 -49 c22 -22 14
-67 -13 -80 -21 -9 -28 -8 -45 7 -36 32 -20 85 25 85 12 0 26 -5 33 -12z m0
-144 c42 -29 20 -104 -30 -104 -52 0 -75 63 -38 100 24 24 38 25 68 4z"/>
<path d="M208 463 c-12 -3 -18 -14 -18 -34 0 -16 1 -29 3 -29 1 0 17 4 35 9
l32 10 0 -120 0 -119 -40 0 c-36 0 -40 -2 -40 -25 l0 -25 110 0 110 0 0 25 c0
22 -4 25 -35 25 l-35 0 0 145 0 145 -52 -1 c-29 -1 -61 -3 -70 -6z"/>
<path d="M1743 371 c-42 -66 -63 -109 -63 -129 l0 -31 68 -3 67 -3 3 -37 c3
-35 6 -38 33 -38 27 0 29 2 29 40 0 33 3 40 20 40 15 0 20 7 20 25 0 18 -5 25
-20 25 -19 0 -20 7 -20 105 l0 105 -37 0 c-37 0 -40 -3 -100 -99z m74 -108
c-3 -2 -25 -3 -49 -1 l-45 3 46 70 46 70 3 -69 c2 -37 1 -70 -1 -73z"/>
<path d="M2230 377 l0 -94 41 11 c60 16 94 -6 94 -59 0 -50 -29 -68 -96 -59
-43 5 -47 4 -51 -19 -4 -21 0 -26 25 -31 89 -18 161 6 184 62 19 47 9 97 -27
134 -23 23 -37 28 -74 28 -46 0 -46 0 -46 35 l0 35 70 0 c67 0 70 1 66 23 -3
21 -8 22 -94 25 l-92 3 0 -94z"/>
<path d="M3210 445 c0 -24 2 -25 70 -25 39 0 70 -4 70 -8 0 -5 -22 -66 -50
-136 -27 -70 -50 -132 -50 -137 0 -5 13 -9 28 -9 32 0 30 -5 107 190 25 63 45
122 45 132 0 16 -11 18 -110 18 l-110 0 0 -25z"/>
</g>
</svg>
